Patient4_TMGait_0pt2_01_left_12_EMG.mot
version=1
nRows=13
nColumns=33
inDegrees=no
endheader
time	1LAddLong	2LGlutMax	3LGlutMed	4LIliopsoas	5LSemiMemb	6LBicFemLong	7LRecFem	8LVastMed	9LVastLat	10LGasMed	11LTibAnt	12lTibPost	13LPeroneusLong	14LSol	15LExtDigLong	16LFlexDigLong	17RAddLong	18RGlutMax	19RGlutMed	20RIliopsoas	21RSemiMemb	22RBicFemLong	23RRecFem	24RVastMed	25RVastLat	26RGasMed	27RTibAnt	28RTibPost	29RPeroneusLong	30RSol	31RExtDigLong	32RFlexDigLong
29.598	0.006866	0.021515	0.008087	-0.005493	-0.027161	0.042572	-0.016022	0.002747	-0.033569	0.030212	0.044098	0.005341	0.089417	-0.035095	0.1561	-0.019836	0.081482	-0.0354	-0.47104	-0.19653	0.071869	0.036011	-0.5835	0.23895	0.41031	-0.023346	-0.063934	-0.000763	0.44373	0.14084	0	-0.011292
29.599	0.005951	0.01297	0.060425	-0.003052	-0.028992	0.040436	-0.043488	0.003662	-0.023041	-0.02121	0.070038	-0.014801	0.093231	-0.015411	0.14816	-0.007172	0.007477	0.006866	-0.62286	-0.053101	-0.12878	0.11597	-0.88837	0.54047	0.1944	-0.029144	-0.032654	-0.12955	0.39734	0.22415	0.000305	-0.016937
29.6	0.010681	0.039825	0.074615	0.00824	-0.022278	0.021362	-0.027161	-0.000458	-0.014954	-0.020447	-0.04837	-0.005035	0.096588	0.011139	0.048676	-0.015869	0.001526	0.01709	-0.65018	0.070648	-0.19333	0.12711	-0.83969	0.58533	-0.12161	-0.023651	0.049133	0.074615	-0.001526	0.14603	-0.001831	-0.013733
29.601	0.014343	-0.014648	-0.010529	0.00473	-0.03952	-0.036621	-0.059662	-0.005646	0.001068	0.005493	-0.13886	0.01709	0.092316	-0.009155	0.02121	-0.013123	0.032501	-0.11368	-0.69992	0.22446	-0.07782	0.027924	-0.4718	-0.07019	-0.39429	-0.00061	0.067749	0.037384	-0.49606	0.13763	0.000153	-0.001373
29.602	0.017242	-0.01358	-0.030365	-0.011749	0.015106	-0.090637	-0.055084	-0.004272	-0.002441	0.002136	-0.080261	0.000763	0.063019	0.008392	0.076294	-0.020294	0.023804	-0.177	-0.087738	0.28488	-0.16876	-0.13351	0.031586	-0.66696	-0.69458	0.016174	0.076294	0.014496	-0.52811	0.035706	0	-0.009613
29.603	0.019073	-0.02182	-0.054779	-0.005646	0.039215	-0.12955	-0.056305	-0.004425	-0.006561	0.009613	-0.054779	0.009613	0.064087	0.003357	-0.015411	-0.012207	0.03891	-0.21118	0.36789	0.15503	-0.11673	-0.13992	0.25207	-1.1148	-0.55191	0.090027	0.057526	0.000458	-0.28046	-0.13901	-0.001526	0.000458
29.604	0.013428	0.000763	0.005341	-0.013123	0.021362	-0.093384	-0.037537	-0.003815	-0.020905	-0.011444	-0.062408	0.000916	0.13489	0.021362	-0.014343	-0.00946	0.014191	-0.18021	0.31647	0.15427	0.03479	-0.085754	0.24307	-1.1052	-0.3389	0.1294	0.04303	-0.00473	0.017242	-0.56824	0	-0.001373
29.605	0.01236	0.009308	-0.000763	0.010834	0.007172	-0.039825	-0.00824	-0.003662	-0.032043	-0.048828	-0.056458	0.00885	0.19623	0.080109	0.17441	-0.009308	-0.023346	-0.12863	-0.089874	0.069427	0.021515	0.040131	0.25574	-1.0129	-0.3566	0.13016	-0.014648	0.023346	-0.32791	-0.6633	0.003662	0.001831
29.606	0.011139	0	-0.003662	-0.001831	-0.003357	-0.053711	-0.02594	0.007782	-0.051117	-0.019989	-0.032501	0.005188	0.11215	0.070038	0.28809	-0.005341	-0.057983	-0.10666	0.38513	-0.065155	-0.060425	-0.033112	0.22369	-0.65659	-0.42038	0.046387	-0.069885	-0.32211	-0.44937	-0.47791	-0.000153	-0.005188
29.607	0.005035	-0.000916	0.000763	-0.007935	-0.007782	-0.048828	-0.018158	0.003967	-0.06134	-0.026093	-0.045776	0.002899	0.095825	0.006104	0.064087	-0.006714	-0.077057	-0.041656	0.39734	-0.048218	0.031433	-0.12207	0.014191	0.37125	-0.26459	-0.092621	-0.090637	-0.19379	0.39368	-0.44281	-0.000305	-0.014038
29.608	0.008087	0.021667	-0.040894	-0.000458	0.023193	-0.025177	-0.040131	0.003204	-0.070801	-0.04364	-0.074768	-0.00061	0.13534	-0.022278	-0.14694	-0.010376	-0.085754	0.035248	-0.21378	-0.033264	0.085754	-0.16174	0.10239	1.6977	-0.18875	-0.092163	-0.092468	-0.56076	0.46768	-0.46356	-0.007019	-0.027466
29.609	-0.00351	0.035553	-0.011444	0.003357	-0.00351	0.015564	-0.036163	0.009308	-0.080261	-0.035706	0.095825	0.004883	0.11581	-0.045013	-0.2214	-0.009003	-0.092468	0.004425	0.26764	-0.063934	0.057678	-0.065613	0.029449	1.4003	-0.20233	-0.096283	-0.040741	-0.1297	0.10422	-0.51498	-0.001526	-0.040131
29.61	0.002441	0.03067	-0.00412	0.000916	0.015411	0.068512	-0.020599	0.007935	-0.081177	-0.014038	0.066833	0.002441	0.085449	-0.07309	-0.099182	-0.007477	-0.079956	0.052185	0.75867	-0.037537	0.083008	0.028839	-0.3157	0.50049	-0.08255	-0.13229	-0.053253	0.27023	0.23193	-1.2143	0.001526	-0.041809
